<svg width="40" height="40" viewBox="0 0 40 40" fill="none" xmlns="http://www.w3.org/2000/svg">
<path d="M4.04 40C2.88833 40 1.9275 39.615 1.1575 38.845C0.3875 38.075 0.00166667 37.1133 0 35.96V4.04C0 2.88833 0.385833 1.9275 1.1575 1.1575C1.92917 0.3875 2.89 0.00166667 4.04 0H28.9425L40 11.0575V35.9625C40 37.1125 39.615 38.0733 38.845 38.845C38.075 39.6167 37.1133 40.0017 35.96 40H4.04ZM4.04 37.5H35.9625C36.4108 37.5 36.7792 37.3558 37.0675 37.0675C37.3558 36.7792 37.5 36.4108 37.5 35.9625V12.5H27.5V2.5H4.04C3.59 2.5 3.22083 2.64417 2.9325 2.9325C2.64417 3.22083 2.5 3.59 2.5 4.04V35.9625C2.5 36.4108 2.64417 36.7792 2.9325 37.0675C3.22083 37.3558 3.59 37.5 4.04 37.5ZM8.75 30H31.25V27.5H8.75V30ZM8.75 12.5H20V10H8.75V12.5ZM8.75 21.25H31.25V18.75H8.75V21.25Z" fill="black"/>
</svg>
