<svg width="40" height="40" viewBox="0 0 40 40" fill="none" xmlns="http://www.w3.org/2000/svg">
<path fill-rule="evenodd" clip-rule="evenodd" d="M18.7671 35.0158C21.7158 35.0158 24.2398 34.6731 26.3888 34.0428C28.8878 35.7912 32.2114 37.5946 36.5096 39.7207C38.7986 40.8613 40.9827 38.275 39.5333 36.1689C37.7166 33.4925 36.1347 30.8911 34.8853 27.9396C36.7245 25.0131 37.4842 21.4112 37.4842 17.5091C37.4842 7.82909 32.7861 0 18.7421 0C4.69801 0 0 7.8541 0 17.5091C0 27.1892 4.69801 35.0183 18.7421 35.0183L18.7671 35.0158ZM32.7861 26.6114C32.5717 26.9513 32.4422 27.3379 32.4087 27.7384C32.3752 28.139 32.4387 28.5418 32.5937 28.9126C33.8832 31.9892 35.5175 34.6906 37.3167 37.342C33.1935 35.2834 30.1198 33.59 27.8207 31.9892C27.5145 31.7753 27.1643 31.6329 26.7959 31.5723C26.4274 31.5117 26.0501 31.5345 25.6916 31.639C23.7974 32.1918 21.5184 32.512 18.7696 32.512C12.1973 32.512 8.274 30.691 5.94998 28.1847C3.59848 25.6334 2.52393 21.9815 2.52393 17.5041C2.52393 13.0268 3.60847 9.34988 5.94749 6.82356C8.26401 4.32226 12.1948 2.4963 18.7671 2.4963C25.3393 2.4963 29.2626 4.31726 31.5866 6.82356C33.9357 9.3749 35.0102 13.0268 35.0102 17.5041C35.0102 21.106 34.3005 24.2076 32.7911 26.6089L32.7861 26.6114Z" fill="black"/>
</svg>
