<svg width="36" height="34" viewBox="0 0 36 34" fill="none" xmlns="http://www.w3.org/2000/svg">
<path d="M17 5.5C18.8565 5.5 20.637 6.00807 21.9497 6.91243C23.2625 7.81679 24 9.04337 24 10.3223C24 11.3312 23.5324 12.1027 22.8156 12.7142C22.3097 13.1295 21.7215 13.4938 21.0684 13.7963L20.6008 14.022C19.8672 14.3731 19.338 14.6335 18.96 14.9537C18.5729 15.2774 18.3734 15.6883 18.4 16.1072V18.0361C18.4 18.2919 18.2525 18.5373 17.9899 18.7181C17.7274 18.899 17.3713 19.0006 17 19.0006C16.6287 19.0006 16.2726 18.899 16.0101 18.7181C15.7475 18.5373 15.6 18.2919 15.6 18.0361V16.1072C15.6 15.1061 16.0704 14.3403 16.79 13.7346C17.308 13.2987 17.9464 12.9553 18.5148 12.6737L18.9992 12.4403C19.7272 12.0912 20.2564 11.8288 20.6344 11.5048C21.0287 11.1724 21.2302 10.7511 21.2 10.3223C21.2 9.55496 20.7575 8.81901 19.9698 8.27639C19.1822 7.73377 18.1139 7.42893 17 7.42893C15.8861 7.42893 14.8178 7.73377 14.0302 8.27639C13.2425 8.81901 12.8 9.55496 12.8 10.3223C12.8 10.5781 12.6525 10.8234 12.3899 11.0043C12.1274 11.1852 11.7713 11.2868 11.4 11.2868C11.0287 11.2868 10.6726 11.1852 10.4101 11.0043C10.1475 10.8234 10 10.5781 10 10.3223C10 9.04337 10.7375 7.81679 12.0503 6.91243C13.363 6.00807 15.1435 5.5 17 5.5ZM17 21.1244C17.6498 21.1244 18.2729 21.3022 18.7324 21.6187C19.1919 21.9352 19.45 22.3645 19.45 22.8122C19.45 23.2598 19.1919 23.6891 18.7324 24.0056C18.2729 24.3222 17.6498 24.5 17 24.5C16.3502 24.5 15.7271 24.3222 15.2676 24.0056C14.8081 23.6891 14.55 23.2598 14.55 22.8122C14.55 22.3645 14.8081 21.9352 15.2676 21.6187C15.7271 21.3022 16.3502 21.1244 17 21.1244Z" fill="black"/>
<path fill-rule="evenodd" clip-rule="evenodd" d="M16.8904 29.388C19.5442 29.388 21.8158 29.1053 23.75 28.5853C25.999 30.0277 28.9902 31.5156 32.8586 33.2696C34.9187 34.2106 36.8844 32.0769 35.58 30.3393C33.9449 28.1313 32.5213 25.9852 31.3967 23.5502C33.052 21.1358 33.7357 18.1642 33.7357 14.945C33.7357 6.959 29.5075 0.5 16.8679 0.5C4.22821 0.5 0 6.97963 0 14.945C0 22.9311 4.22821 29.3901 16.8679 29.3901L16.8904 29.388ZM29.5075 22.4544C29.3145 22.7348 29.198 23.0537 29.1679 23.3842C29.1377 23.7147 29.1948 24.047 29.3343 24.3529C30.4949 26.8911 31.9657 29.1198 33.5851 31.3072C29.8741 29.6088 27.1078 28.2118 25.0387 26.8911C24.7631 26.7146 24.4479 26.5971 24.1163 26.5471C23.7847 26.4971 23.4451 26.5159 23.1225 26.6022C21.4177 27.0582 19.3666 27.3224 16.8926 27.3224C10.9776 27.3224 7.4466 25.8201 5.35499 23.7524C3.23863 21.6475 2.27154 18.6347 2.27154 14.9409C2.27154 11.2471 3.24763 8.21365 5.35274 6.12944C7.43761 4.06586 10.9754 2.55945 16.8904 2.55945C22.8054 2.55945 26.3364 4.06174 28.428 6.12944C30.5421 8.23429 31.5092 11.2471 31.5092 14.9409C31.5092 17.9125 30.8705 20.4713 29.512 22.4523L29.5075 22.4544Z" fill="black"/>
</svg>
