<svg width="50" height="50" viewBox="0 0 50 50" fill="none" xmlns="http://www.w3.org/2000/svg">
<path fill-rule="evenodd" clip-rule="evenodd" d="M33.8542 7.8125V11.3333L38.0208 14.6667V7.8125H33.8542ZM41.1458 17.1667V7.29167C41.1458 5.85417 39.9792 4.6875 38.5417 4.6875H33.3333C31.8958 4.6875 30.7292 5.85417 30.7292 7.29167V8.83333L29.8813 8.15417C28.4959 7.04555 26.7744 6.44155 25 6.44155C23.2257 6.44155 21.5041 7.04555 20.1188 8.15417L3.19167 21.6958C2.86789 21.9547 2.6602 22.3316 2.61429 22.7436C2.56838 23.1556 2.68802 23.5689 2.94688 23.8927C3.20574 24.2165 3.58263 24.4242 3.99462 24.4701C4.40661 24.516 4.81997 24.3964 5.14376 24.1375L6.77084 22.8333V44.2708H4.16667C3.75227 44.2708 3.35484 44.4355 3.06182 44.7285C2.76879 45.0215 2.60417 45.4189 2.60417 45.8333C2.60417 46.2477 2.76879 46.6452 3.06182 46.9382C3.35484 47.2312 3.75227 47.3958 4.16667 47.3958H45.8333C46.2477 47.3958 46.6452 47.2312 46.9382 46.9382C47.2312 46.6452 47.3958 46.2477 47.3958 45.8333C47.3958 45.4189 47.2312 45.0215 46.9382 44.7285C46.6452 44.4355 46.2477 44.2708 45.8333 44.2708H43.2292V22.8333L44.8583 24.1375C45.1827 24.3902 45.5935 24.505 46.0019 24.4568C46.4102 24.4086 46.7831 24.2014 47.0397 23.8801C47.2963 23.5588 47.4159 23.1493 47.3726 22.7405C47.3293 22.3316 47.1265 21.9562 46.8083 21.6958L41.1458 17.1667ZM40.1042 20.3333L27.9292 10.5937C27.0979 9.92837 26.0648 9.56584 25 9.56584C23.9352 9.56584 22.9021 9.92837 22.0708 10.5937L9.89584 20.3333V44.2708H17.1875V35.3125C17.1875 33.9292 17.1875 32.7354 17.3167 31.7792C17.4542 30.7542 17.7646 29.7729 18.5604 28.9771C19.3563 28.1812 20.3396 27.8708 21.3625 27.7333C22.3188 27.6042 23.5125 27.6042 24.8979 27.6042H25.1021C26.4875 27.6042 27.6813 27.6042 28.6375 27.7333C29.6625 27.8708 30.6438 28.1812 31.4396 28.9771C32.2354 29.7729 32.5458 30.7542 32.6833 31.7792C32.8125 32.7354 32.8125 33.9292 32.8125 35.3146V44.2708H40.1042V20.3333ZM29.6875 44.2708V35.4167C29.6875 33.9 29.6833 32.9167 29.5875 32.1958C29.4958 31.5187 29.35 31.3062 29.2292 31.1875C29.1083 31.0687 28.8979 30.9208 28.2208 30.8292C27.4979 30.7333 26.5167 30.7292 25 30.7292C23.4833 30.7292 22.5 30.7333 21.7792 30.8292C21.1021 30.9208 20.8896 31.0687 20.7708 31.1875C20.6521 31.3062 20.5042 31.5187 20.4125 32.1958C20.3167 32.9187 20.3125 33.9 20.3125 35.4167V44.2708H29.6875ZM25 17.1875C24.658 17.1875 24.3194 17.2549 24.0034 17.3857C23.6875 17.5166 23.4004 17.7084 23.1586 17.9502C22.9168 18.1921 22.7249 18.4791 22.5941 18.7951C22.4632 19.111 22.3958 19.4497 22.3958 19.7917C22.3958 20.1337 22.4632 20.4723 22.5941 20.7882C22.7249 21.1042 22.9168 21.3913 23.1586 21.6331C23.4004 21.8749 23.6875 22.0667 24.0034 22.1976C24.3194 22.3285 24.658 22.3958 25 22.3958C25.6907 22.3958 26.3531 22.1215 26.8414 21.6331C27.3298 21.1447 27.6042 20.4823 27.6042 19.7917C27.6042 19.101 27.3298 18.4386 26.8414 17.9502C26.3531 17.4619 25.6907 17.1875 25 17.1875ZM19.2708 19.7917C19.2708 18.2722 19.8744 16.815 20.9489 15.7405C22.0233 14.6661 23.4805 14.0625 25 14.0625C26.5195 14.0625 27.9767 14.6661 29.0511 15.7405C30.1256 16.815 30.7292 18.2722 30.7292 19.7917C30.7292 21.3111 30.1256 22.7684 29.0511 23.8428C27.9767 24.9172 26.5195 25.5208 25 25.5208C23.4805 25.5208 22.0233 24.9172 20.9489 23.8428C19.8744 22.7684 19.2708 21.3111 19.2708 19.7917Z" fill="black"/>
</svg>
